<?xml version="1.0" encoding="utf-8"?>
<!-- Generator: Adobe Illustrator 29.5.1, SVG Export Plug-In . SVG Version: 9.03 Build 0)  -->
<svg version="1.0" xmlns="http://www.w3.org/2000/svg" xmlns:xlink="http://www.w3.org/1999/xlink" x="0px" y="0px"
	 viewBox="0 0 516.1 485.74" style="enable-background:new 0 0 516.1 485.74;" xml:space="preserve">
<style type="text/css">
	.st0{opacity:0.1;clip-path:url(#SVGID_00000059289579994098233780000003316628184576467621_);fill:#615D59;}
	.st1{opacity:0.1;clip-path:url(#SVGID_00000091696402617159960560000000246127258339233164_);fill:#615D59;}
	.st2{fill:#F6F6F6;}
	.st3{opacity:0.1;clip-path:url(#SVGID_00000124153992383582078710000004014510519802523047_);fill:#615D59;}
	.st4{opacity:0.1;clip-path:url(#SVGID_00000100362205607945570830000003163254637470975134_);fill:#615D59;}
	.st5{opacity:0.1;clip-path:url(#SVGID_00000072962010666321729820000008798378602194070918_);fill:#615D59;}
	.st6{fill:#9E703C;}
	.st7{fill:#615D59;}
	.st8{clip-path:url(#SVGID_00000175319281782411081860000016433220912513874362_);}
	.st9{clip-path:url(#SVGID_00000068669866259988886490000017195096069493299847_);}
	.st10{fill:#EDEDED;}
	.st11{clip-path:url(#SVGID_00000067204502311635046690000012484651004142216064_);fill:#EDEDED;}
	.st12{opacity:0.75;}
	.st13{fill:#DBDAD9;}
	.st14{clip-path:url(#SVGID_00000132773446788769001860000005384399628007439262_);fill:#EDEDED;}
	.st15{opacity:0.95;}
	.st16{opacity:0.1;clip-path:url(#SVGID_00000034780571109685710000000012040591617670454429_);fill:#615D59;}
	.st17{opacity:0.1;fill:#615D59;}
	.st18{opacity:0.1;fill:#9E703C;}
	.st19{opacity:0.85;fill:#EDEDED;}
	.st20{fill:#FFFFFF;}
	.st21{opacity:0.9;fill:#EDEDED;}
	.st22{fill:none;stroke:#9E703C;stroke-miterlimit:10;}
	.st23{opacity:0.79;fill:#A5BAC9;}
	.st24{clip-path:url(#SVGID_00000060748048516977764040000013387628002315637684_);}
	.st25{fill:none;stroke:#A5BAC9;stroke-miterlimit:10;}
	.st26{fill:#A5BAC9;}
	.st27{opacity:0.1;clip-path:url(#SVGID_00000113352489111586419800000007882446464699805118_);fill:#615D59;}
	.st28{opacity:0.61;fill:#EDEDED;}
	.st29{fill:#75858F;}
	.st30{fill:#A19F9C;}
	.st31{fill:none;stroke:#9E703C;stroke-width:0.4;stroke-miterlimit:10;}
	.st32{fill:#B0865A;}
	.st33{opacity:0.1;clip-path:url(#SVGID_00000050628606051550863510000006276286690246966916_);fill:#615D59;}
	.st34{opacity:0.1;clip-path:url(#SVGID_00000150800874162747280350000007443885853494668171_);fill:#615D59;}
	.st35{opacity:0.8;fill:#F6F6F6;}
	.st36{opacity:0.1;clip-path:url(#SVGID_00000160165266660204426990000015706145983859751860_);fill:#9E703C;}
	.st37{opacity:0.1;clip-path:url(#SVGID_00000011029596182481979790000007405123408329516431_);fill:#615D59;}
	.st38{opacity:0.79;fill:#9E703C;}
	.st39{clip-path:url(#SVGID_00000131335472038186195520000006103598855709680295_);}
	.st40{fill:#C7C6C4;}
	.st41{fill:none;stroke:#9E703C;stroke-width:0.25;stroke-miterlimit:10;}
	.st42{fill:#DEDEDD;}
	.st43{fill:#C9A989;}
	.st44{fill:#7A7673;}
	.st45{fill:none;stroke:#9E703C;stroke-width:0.25;stroke-linecap:round;stroke-miterlimit:10;}
	.st46{fill:none;stroke:#EDEDED;stroke-miterlimit:10;}
	.st47{opacity:0.6;}
	.st48{clip-path:url(#SVGID_00000049208902796375107150000001093114859643888808_);}
	.st49{opacity:0.47;fill:#EDEDED;}
	.st50{opacity:0.24;}
	.st51{clip-path:url(#SVGID_00000116926497354716471730000017312601092786464170_);}
	.st52{opacity:0.1;clip-path:url(#SVGID_00000147938157841744792180000002464409804219956415_);fill:#615D59;}
	.st53{fill:none;stroke:#A5BAC9;stroke-width:0.4;stroke-miterlimit:10;}
	.st54{opacity:0.1;clip-path:url(#SVGID_00000116204111520958162000000014102663405145198233_);fill:#615D59;}
	.st55{opacity:0.1;clip-path:url(#SVGID_00000073707404365706493440000012816578317498288807_);fill:#615D59;}
	.st56{opacity:0.86;}
	.st57{opacity:0.1;fill:#A5BAC9;}
	.st58{fill:none;stroke:#75858F;stroke-width:0.25;stroke-miterlimit:10;}
	.st59{fill:none;stroke:#A19F9C;stroke-width:0.5;stroke-miterlimit:10;}
	.st60{fill:none;stroke:#75858F;stroke-width:0.5;stroke-miterlimit:10;}
	.st61{fill:none;stroke:#A5BAC9;stroke-width:0.25;stroke-miterlimit:10;}
	.st62{fill:none;stroke:#FFFFFF;stroke-width:0.5;stroke-miterlimit:10;}
	.st63{fill:none;stroke:#615D59;stroke-width:0.25;stroke-miterlimit:10;}
	.st64{fill:none;stroke:#615D59;stroke-width:0.25;stroke-miterlimit:10;stroke-dasharray:1.0064,2.0127;}
	.st65{fill:none;stroke:#615D59;stroke-width:0.25;stroke-miterlimit:10;stroke-dasharray:1.0075,2.015;}
	.st66{opacity:0.86;fill:#EDEDED;}
	.st67{fill:#B0ADAB;}
	.st68{opacity:0.17;fill:#615D59;}
	.st69{fill:none;stroke:#615D59;stroke-width:0.25;stroke-miterlimit:10;stroke-dasharray:1.0001,2.0002;}
	.st70{fill:none;stroke:#615D59;stroke-width:0.25;stroke-miterlimit:10;stroke-dasharray:1.0028,2.0055;}
	.st71{opacity:0.77;fill:#C3A17E;}
	.st72{opacity:0.28;fill:#9E703C;}
</style>
<g id="Capa_1">
	<g>
		<defs>
			<rect id="SVGID_00000018203502505610341460000001503169633184502692_" x="-1812.74" y="958.82" width="1296.91" height="574.7"/>
		</defs>
		<clipPath id="SVGID_00000054256098372929899730000015219772654724709553_">
			<use xlink:href="#SVGID_00000018203502505610341460000001503169633184502692_"  style="overflow:visible;"/>
		</clipPath>
		<path style="clip-path:url(#SVGID_00000054256098372929899730000015219772654724709553_);fill:#EDEDED;" d="M760.99,546.28
			c-30.11-78.48-79.47-150.39-147.89-215.27c-45.03-44.17-103.13-79.54-174.97-105.1c-71.58-25.5-149.47-45.29-233.54-58.83
			C120.51,153.28,32.95,144.14-57.95,140c-8.48-0.33-15.84-0.2-24.12-0.39c-82.16-3.68-161.96-5.92-238.08-5.92h-35.76
			c-8.48,1.38-18.08,1.84-26.29,3.48c-45.22,8.15-86.63,20.18-124.3,34.97c-37.99,15.12-72.63,33.59-104.51,55.34
			c-14.33,9.86-27.8,21.95-41.74,32.8c-17.09,13.28-34.57,25.5-51.27,40.23c-28.73,25.11-63.76,60.93-105.56,106.94
			c-42.13,46.21-89,100.51-140.99,163.41c-51.93,62.84-107.6,132.05-167.28,207.58c-59.42,75.33-121.93,155.06-187.27,238.86
			c-83.87,108.98-167.15,209.88-250.3,303.02c-82.95,93.08-168.07,174.52-255.17,243.93c-87.22,69.67-177.93,124.36-271.73,163.61
			c-93.86,39.5-194.63,59.09-301.7,59.09c-48.77,0-101.62-5.26-158.48-16.5c-57.06-10.72-109.84-30.89-158.61-60.01
			c-48.58-29.45-88.87-69.81-120.68-121.01c-31.75-51.2-47.66-116.93-47.66-197.19c0-48.9,7.36-90.25,22.41-124.63
			c15.25-34.51,32.8-62.84,52.85-85.71c20.11-22.48,40.69-39.77,61.72-51.47c20.97-11.63,38.06-17.42,51.53-17.42
			c15.05,0,30.56,2.37,46.6,7.43c15.91,4.99,34.77,18.54,56.46,40.29c13.61,13.54,28.66,27.28,45.29,41.35
			c16.76,14.33,40.29,21.49,70.46,21.49c37.01,0,69.22-10.98,96.89-32.6c27.61-21.82,41.34-56.2,41.34-103.13
			c0-9.99-2.89-23.07-8.74-39.04c-5.78-15.84-16.3-31.49-31.49-46.54c-14.92-15.18-35.1-28.13-60.21-39.04
			c-25.17-10.91-57.06-16.43-95.64-16.43c-70.4,0-133.76,14.07-189.96,41.61c-56.13,27.61-103.92,65.07-143.23,111.88
			c-39.37,46.93-69.61,101.03-90.64,162.35c-20.97,61.26-31.48,125.28-31.48,192.39c0,98.93,16.43,183.98,49.1,255.43
			c32.67,71.25,74.54,129.82,125.74,175.96c51.14,46.08,109.38,80.32,174.84,103.13c65.34,22.41,130.74,33.92,196.21,33.92
			c63.63,0,126.93-5.79,189.83-17.75c62.77-11.7,126.73-32.01,191.14-61.52c64.48-29.38,129.1-67.9,193.84-115.49
			c64.35-48.05,130.15-108.06,197.33-180.17c33.59-35.17,67.5-74.21,101.82-116.93c34.31-42.66,67.04-84.27,98.07-124.23
			c31.09-40.36,58.17-76.45,81.83-108.26c23.47-31.75,41.08-55.34,52.72-70.46H-888l-121.21,336.02
			c-19.72,58.96-33.85,103.72-45.09,140.6c-2.56,9.14-6.31,20.77-8.54,28.59c-7.03,25.5-10.45,44.56-12.36,60.8
			c-0.98,8.74-2.1,17.75-1.58,23.66c1.58,17.15,9.07,27.01,22.48,29.78c13.28,2.5,32.14,3.88,56,3.88
			c49.56,0,98.99,0.98,148.55,3.75c49.23,2.43,98.53,3.75,148.16,3.75c265.16,0,489.63-31.09,674.14-93.6
			c184.31-62.58,338.71-149.01,463.14-260.36c107.8-97.22,190.42-203.04,247.54-316.76c57.12-113.32,91.83-226.64,103.66-339.7
			C799.97,725.79,791.23,625.23,760.99,546.28 M-806.37,1040.64l-30.24,83.81h-393.73c23.33-36.87,52.06-79.07,85.38-126.92
			c33.79-47.79,69.22-96.89,107.01-147.24c37.79-50.02,75.39-100.43,113.12-150.78c37.86-50.48,73.88-97.35,108.13-140.86
			c34.51-43.45,65.47-81.38,93.01-113.19c27.8-31.81,50.02-55.41,66.78-70.53c13.28-11.63,26.03-21.23,37.66-28.85
			c11.7-7.43,20.24-11.11,25.24-11.11c4.99,0,10.38,3.68,16.23,11.11c5.98,7.62,5.52,20.57-1.12,38.98L-806.37,1040.64z
			 M424.32,808.02c-15.51,133.24-54.03,259.51-115.29,378.41c-61.13,118.84-151.18,230.39-269.76,334.31
			c-39.57,34.44-84.46,66.85-134.68,97.74c-50.35,30.63-102.67,57.25-157.1,79.47c-54.49,22.15-110.49,39.7-168.2,52.72
			c-57.97,12.62-113.32,19.06-166.37,19.06c-35.89,0-61.65-10.38-77.43-30.83c-15.78-20.44-13.87-59.03,5.65-115.42l463.47-1310.61
			c12.16-33.79,25.04-55.41,38.91-64.22c6.57-3.88,15.84-6.9,27.48-9.01c12.1-2.17,26.75-3.35,44.24-3.35
			c66.26,0,124.95,9.93,179.84,25.18c16.04,4.47,33.26,7.23,48.31,12.95c66.46,25.7,122.26,63.5,167.48,113.19
			c45.35,49.7,77.96,109.9,97.87,180.63C428.52,639.43,433.72,719.42,424.32,808.02"/>
	</g>
	<g>
		<circle class="st6" cx="258.05" cy="242.87" r="91.92"/>
		<path class="st10" d="M290.76,234.58c-0.73-1.67-1.59-3.02-2.6-4.02c-1-1.01-2.05-1.71-3.1-2.1c-1.06-0.39-1.94-0.58-2.6-0.58
			c-3.13,0-5.42,0.92-6.88,2.76c-1.44,1.85-2.17,3.99-2.17,6.46c0,2.01,0.48,3.58,1.43,4.7c0.94,1.11,1.85,2.11,2.76,3.02
			c1.45,1.45,2.35,2.71,2.69,3.77c0.34,1.07,0.5,2.1,0.5,3.11c0,0.9-0.39,2.04-1.16,3.44c-0.78,1.4-1.93,2.78-3.43,4.12
			c-1.53,1.34-3.46,2.4-5.72,3.52c-10.65,5.29-22.51,1-24.8,0c-2.3-1.02-4.19-2.19-5.72-3.52c-1.5-1.34-2.65-2.71-3.43-4.12
			c-0.78-1.4-1.16-2.54-1.16-3.44c0-1,0.16-2.04,0.5-3.11c0.33-1.06,1.24-2.32,2.69-3.77c0.9-0.91,1.82-1.91,2.76-3.02
			c0.96-1.12,1.43-2.69,1.43-4.7c0-2.47-0.73-4.62-2.17-6.46c-1.46-1.84-3.75-2.76-6.88-2.76c-0.67,0-1.54,0.19-2.6,0.58
			c-1.06,0.39-2.1,1.09-3.1,2.1c-1.01,0.99-1.88,2.34-2.6,4.02c-0.73,1.68-1.1,3.81-1.1,6.38c0,4.7,0.94,8.92,2.77,12.67
			c1.84,3.74,4.34,6.93,7.46,9.55c2.49,2.09,16.45,10.22,22.06,13.46c1.54,0.89,3.42,0.88,4.96-0.01
			c5.59-3.26,17.55-11.3,20.11-13.44c3.12-2.62,5.62-5.81,7.46-9.55c1.84-3.75,2.77-7.97,2.77-12.67
			C291.85,238.39,291.48,236.26,290.76,234.58z"/>
	</g>
</g>
<g id="Capa_2">
</g>
</svg>
