<?xml version="1.0" encoding="utf-8"?>
<!-- Generator: Adobe Illustrator 29.5.1, SVG Export Plug-In . SVG Version: 9.03 Build 0)  -->
<svg version="1.0" xmlns="http://www.w3.org/2000/svg" xmlns:xlink="http://www.w3.org/1999/xlink" x="0px" y="0px"
	 viewBox="0 0 49.42 15.33" style="enable-background:new 0 0 49.42 15.33;" xml:space="preserve">
<style type="text/css">
	.st0{opacity:0.1;clip-path:url(#SVGID_00000091705602974256745520000004699113084405269894_);fill:#615D59;}
	.st1{opacity:0.1;clip-path:url(#SVGID_00000157996276328992743400000006045207663954881699_);fill:#615D59;}
	.st2{fill:#F6F6F6;}
	.st3{opacity:0.1;clip-path:url(#SVGID_00000163773503750591125760000002061793086255348124_);fill:#615D59;}
	.st4{opacity:0.1;clip-path:url(#SVGID_00000116935327797690861310000001709249475910780073_);fill:#615D59;}
	.st5{opacity:0.1;clip-path:url(#SVGID_00000097498558303618343920000006398367066196407691_);fill:#615D59;}
	.st6{fill:#9E703C;}
	.st7{fill:#615D59;}
	.st8{clip-path:url(#SVGID_00000047048042923730496650000011929265615175821724_);}
	.st9{clip-path:url(#SVGID_00000134949446982803073350000010219061285480103342_);}
	.st10{fill:#EDEDED;}
	.st11{clip-path:url(#SVGID_00000021113616615427060750000011964223932449328779_);fill:#EDEDED;}
	.st12{opacity:0.75;}
	.st13{fill:#DBDAD9;}
	.st14{clip-path:url(#SVGID_00000082359328586578540910000002565234974436799923_);fill:#EDEDED;}
	.st15{opacity:0.95;}
	.st16{opacity:0.1;clip-path:url(#SVGID_00000057138020218896214800000012548088108970192275_);fill:#615D59;}
	.st17{opacity:0.1;fill:#615D59;}
	.st18{opacity:0.1;fill:#9E703C;}
	.st19{opacity:0.85;fill:#EDEDED;}
	.st20{fill:#FFFFFF;}
	.st21{opacity:0.9;fill:#EDEDED;}
	.st22{fill:none;stroke:#9E703C;stroke-miterlimit:10;}
	.st23{opacity:0.79;fill:#A5BAC9;}
	.st24{clip-path:url(#SVGID_00000070091995448745354930000012585901522833565858_);}
	.st25{fill:none;stroke:#A5BAC9;stroke-miterlimit:10;}
	.st26{fill:#A5BAC9;}
	.st27{opacity:0.1;clip-path:url(#SVGID_00000165207943553370128450000014828149255841082247_);fill:#615D59;}
	.st28{opacity:0.61;fill:#EDEDED;}
	.st29{fill:#75858F;}
	.st30{fill:#A19F9C;}
	.st31{fill:none;stroke:#9E703C;stroke-width:0.4;stroke-miterlimit:10;}
	.st32{fill:#B0865A;}
	.st33{opacity:0.1;clip-path:url(#SVGID_00000047034047076867197640000010622191660607838396_);fill:#615D59;}
	.st34{opacity:0.1;clip-path:url(#SVGID_00000080175451085641970660000006491102609269652374_);fill:#615D59;}
	.st35{opacity:0.8;fill:#F6F6F6;}
	.st36{opacity:0.1;clip-path:url(#SVGID_00000012474153894975425230000008513522734061695623_);fill:#9E703C;}
	.st37{opacity:0.1;clip-path:url(#SVGID_00000175316630439576421770000015962193894632268174_);fill:#615D59;}
	.st38{opacity:0.79;fill:#9E703C;}
	.st39{clip-path:url(#SVGID_00000138539720130978938810000014252463845988924079_);}
	.st40{fill:#C7C6C4;}
	.st41{fill:none;stroke:#9E703C;stroke-width:0.25;stroke-miterlimit:10;}
	.st42{fill:#DEDEDD;}
	.st43{fill:#C9A989;}
	.st44{fill:#7A7673;}
	.st45{fill:none;stroke:#9E703C;stroke-width:0.25;stroke-linecap:round;stroke-miterlimit:10;}
	.st46{fill:none;stroke:#EDEDED;stroke-miterlimit:10;}
	.st47{opacity:0.6;}
	.st48{clip-path:url(#SVGID_00000026862277664248061480000005274898604517057946_);}
	.st49{opacity:0.47;fill:#EDEDED;}
	.st50{opacity:0.24;}
	.st51{clip-path:url(#SVGID_00000044881715641043923280000002074214528791262373_);}
	.st52{opacity:0.1;clip-path:url(#SVGID_00000087398569197528493040000012098633695347628188_);fill:#615D59;}
	.st53{fill:none;stroke:#A5BAC9;stroke-width:0.4;stroke-miterlimit:10;}
	.st54{opacity:0.1;clip-path:url(#SVGID_00000065052426376466579780000017690408242944845981_);fill:#615D59;}
	.st55{opacity:0.1;clip-path:url(#SVGID_00000140714444337756764330000001531680905958266033_);fill:#615D59;}
	.st56{opacity:0.86;}
	.st57{opacity:0.1;fill:#A5BAC9;}
	.st58{fill:none;stroke:#75858F;stroke-width:0.25;stroke-miterlimit:10;}
	.st59{fill:none;stroke:#A19F9C;stroke-width:0.5;stroke-miterlimit:10;}
	.st60{fill:none;stroke:#75858F;stroke-width:0.5;stroke-miterlimit:10;}
	.st61{fill:none;stroke:#A5BAC9;stroke-width:0.25;stroke-miterlimit:10;}
	.st62{fill:none;stroke:#FFFFFF;stroke-width:0.5;stroke-miterlimit:10;}
	.st63{fill:none;stroke:#615D59;stroke-width:0.25;stroke-miterlimit:10;}
	.st64{fill:none;stroke:#615D59;stroke-width:0.25;stroke-miterlimit:10;stroke-dasharray:1.0064,2.0127;}
	.st65{fill:none;stroke:#615D59;stroke-width:0.25;stroke-miterlimit:10;stroke-dasharray:1.0075,2.015;}
	.st66{opacity:0.86;fill:#EDEDED;}
	.st67{fill:#B0ADAB;}
	.st68{opacity:0.17;fill:#615D59;}
	.st69{fill:none;stroke:#615D59;stroke-width:0.25;stroke-miterlimit:10;stroke-dasharray:1.0001,2.0002;}
	.st70{fill:none;stroke:#615D59;stroke-width:0.25;stroke-miterlimit:10;stroke-dasharray:1.0028,2.0055;}
	.st71{opacity:0.77;fill:#C3A17E;}
	.st72{opacity:0.28;fill:#9E703C;}
</style>
<g id="Capa_1">
	<g>
		<defs>
			<rect id="SVGID_00000109746478393391869470000014933893328274024629_" x="175.09" y="-1391.62" width="1297.3" height="1742.8"/>
		</defs>
		<clipPath id="SVGID_00000127039424045068416940000001348527873661197211_">
			<use xlink:href="#SVGID_00000109746478393391869470000014933893328274024629_"  style="overflow:visible;"/>
		</clipPath>
		<path style="opacity:0.1;clip-path:url(#SVGID_00000127039424045068416940000001348527873661197211_);fill:#615D59;" d="
			M2613.13-1111.55c-37.88-98.43-100-188.61-186.11-269.98c-56.66-55.4-129.78-99.75-220.19-131.82
			c-90.08-31.99-188.1-56.8-293.89-73.78c-105.79-17.31-215.97-28.77-330.37-33.96c-10.67-0.41-19.93-0.25-30.36-0.49
			c-103.4-4.62-203.82-7.42-299.6-7.42h-45c-10.67,1.73-22.75,2.31-33.09,4.37c-56.91,10.22-109.02,25.31-156.42,43.86
			c-47.81,18.96-91.4,42.12-131.52,69.41c-18.03,12.37-34.99,27.53-52.53,41.14c-21.51,16.65-43.51,31.99-64.52,50.45
			c-36.15,31.49-80.24,76.42-132.84,134.12c-53.02,57.95-112,126.05-177.43,204.94c-65.34,78.81-135.41,165.61-210.51,260.34
			C173.99-725.9,95.32-625.91,13.1-520.8C-92.44-384.12-197.24-257.58-301.88-140.77C-406.27-24.04-513.39,78.1-622.99,165.16
			c-109.76,87.38-223.91,155.97-341.95,205.19c-118.12,49.54-244.92,74.11-379.67,74.11c-61.38,0-127.88-6.59-199.43-20.69
			c-71.8-13.44-138.22-38.75-199.59-75.27c-61.13-36.93-111.83-87.55-151.87-151.77c-39.95-64.22-59.97-146.65-59.97-247.31
			c0-61.33,9.26-113.18,28.21-156.3c19.19-43.28,41.28-78.81,66.5-107.49c25.31-28.2,51.2-49.88,77.67-64.55
			c26.39-14.59,47.89-21.85,64.85-21.85c18.94,0,38.46,2.97,58.64,9.32c20.02,6.26,43.76,23.25,71.05,50.53
			c17.12,16.98,36.06,34.21,56.99,51.86c21.09,17.97,50.71,26.95,88.67,26.95c46.57,0,87.1-13.77,121.92-40.89
			c34.74-27.37,52.03-70.49,52.03-129.35c0-12.53-3.64-28.94-11-48.97c-7.28-19.86-20.51-39.49-39.62-58.37
			c-18.78-19.04-44.17-35.28-75.77-48.97c-31.68-13.69-71.8-20.61-120.35-20.61c-88.59,0-168.33,17.64-239.05,52.18
			c-70.64,34.62-130.77,81.61-180.24,140.31c-49.55,58.86-87.6,126.7-114.07,203.62c-26.39,76.83-39.62,157.13-39.62,241.29
			c0,124.07,20.68,230.74,61.79,320.35c41.11,89.36,93.8,162.81,158.24,220.68c64.35,57.79,137.64,100.74,220.03,129.34
			c82.22,28.11,164.52,42.54,246.91,42.54c80.07,0,159.73-7.26,238.89-22.26c78.99-14.67,159.48-40.15,240.54-77.16
			c81.15-36.85,162.46-85.16,243.93-144.84c80.98-60.26,163.78-135.53,248.32-225.96c42.27-44.1,84.95-93.07,128.13-146.65
			C-258.7,70.68-217.51,18.5-178.47-31.62c39.12-50.62,73.2-95.88,102.98-135.78c29.53-39.81,51.7-69.41,66.34-88.37h547.17
			L385.49,165.65c-24.81,73.94-42.6,130.08-56.74,176.33c-3.23,11.46-7.94,26.05-10.75,35.86c-8.85,31.99-13.15,55.89-15.55,76.25
			c-1.24,10.96-2.65,22.26-1.98,29.68c1.98,21.51,11.41,33.88,28.29,37.34c16.71,3.13,40.45,4.86,70.48,4.86
			c62.37,0,124.57,1.24,186.94,4.7c61.96,3.05,123.99,4.7,186.44,4.7c333.68,0,616.16-38.99,848.34-117.39
			c231.94-78.48,426.24-186.88,582.82-326.53c135.66-121.92,239.63-254.65,311.51-397.26c71.88-142.12,115.56-284.24,130.44-426.04
			C2662.18-886.41,2651.18-1012.54,2613.13-1111.55 M640.75-491.54l-38.05,105.11H107.23c29.36-46.25,65.51-99.17,107.45-159.18
			c42.52-59.94,87.1-121.51,134.66-184.66c47.56-62.73,94.87-125.96,142.35-189.11c47.65-63.31,92.98-122.09,136.07-176.66
			c43.43-54.49,82.39-102.06,117.04-141.96c34.99-39.9,62.95-69.49,84.04-88.45c16.71-14.59,32.76-26.63,47.4-36.19
			c14.72-9.32,25.48-13.93,31.76-13.93c6.29,0,13.07,4.61,20.43,13.93c7.53,9.56,6.95,25.8-1.41,48.88L640.75-491.54z
			 M2189.46-783.28c-19.52,167.1-67.99,325.47-145.09,474.59c-76.93,149.04-190.25,288.94-339.47,419.28
			c-49.8,43.2-106.29,83.84-169.49,122.58c-63.36,38.42-129.2,71.8-197.69,99.67c-68.57,27.78-139.05,49.79-211.67,66.11
			c-72.96,15.83-142.6,23.91-209.36,23.91c-45.16,0-77.59-13.02-97.44-38.66c-19.85-25.64-17.45-74.03,7.11-144.76l583.23-1643.71
			c15.3-42.38,31.51-69.5,48.97-80.54c8.27-4.87,19.94-8.66,34.58-11.3c15.22-2.72,33.67-4.21,55.67-4.21
			c83.38,0,157.24,12.45,226.31,31.58c20.18,5.61,41.85,9.07,60.8,16.24c83.63,32.23,153.85,79.63,210.76,141.96
			c57.07,62.33,98.1,137.83,123.16,226.54C2194.75-994.73,2201.28-894.41,2189.46-783.28"/>
	</g>
	<g>
		<defs>
			
				<rect id="SVGID_00000057847819862518397040000002924314189799518866_" x="-1663.3" y="-1391.62" width="1297.3" height="1742.8"/>
		</defs>
		<clipPath id="SVGID_00000049914615635296230730000014195001154916321928_">
			<use xlink:href="#SVGID_00000057847819862518397040000002924314189799518866_"  style="overflow:visible;"/>
		</clipPath>
		<path style="opacity:0.1;clip-path:url(#SVGID_00000049914615635296230730000014195001154916321928_);fill:#615D59;" d="
			M774.74-1111.55c-37.88-98.43-100-188.61-186.11-269.98c-56.66-55.4-129.78-99.75-220.19-131.82
			c-90.08-31.99-188.1-56.8-293.89-73.78c-105.79-17.31-215.97-28.77-330.37-33.96c-10.67-0.41-19.93-0.25-30.36-0.49
			c-103.4-4.62-203.82-7.42-299.6-7.42h-45c-10.67,1.73-22.75,2.31-33.09,4.37c-56.91,10.22-109.02,25.31-156.42,43.86
			c-47.81,18.96-91.4,42.12-131.52,69.41c-18.03,12.37-34.99,27.53-52.53,41.14c-21.51,16.65-43.51,31.99-64.52,50.45
			c-36.15,31.49-80.24,76.42-132.84,134.12c-53.02,57.95-112,126.05-177.43,204.94c-65.34,78.81-135.41,165.61-210.51,260.34
			c-74.78,94.47-153.44,194.47-235.66,299.57c-105.55,136.68-210.35,263.22-314.99,380.03
			c-104.39,116.73-211.51,218.87-321.1,305.92c-109.76,87.38-223.91,155.97-341.95,205.19c-118.12,49.54-244.92,74.11-379.67,74.11
			c-61.38,0-127.88-6.59-199.43-20.69c-71.8-13.44-138.22-38.75-199.59-75.27c-61.13-36.93-111.83-87.55-151.87-151.77
			c-39.95-64.22-59.97-146.65-59.97-247.31c0-61.33,9.26-113.18,28.21-156.3c19.19-43.28,41.27-78.81,66.5-107.49
			c25.31-28.2,51.2-49.88,77.67-64.55c26.39-14.59,47.89-21.85,64.85-21.85c18.94,0,38.46,2.97,58.64,9.32
			c20.02,6.26,43.76,23.25,71.05,50.53c17.12,16.98,36.06,34.21,56.99,51.86c21.09,17.97,50.71,26.95,88.67,26.95
			c46.57,0,87.1-13.77,121.92-40.89c34.74-27.37,52.03-70.49,52.03-129.35c0-12.53-3.64-28.94-11-48.97
			c-7.28-19.86-20.51-39.49-39.62-58.37c-18.78-19.04-44.17-35.28-75.77-48.97c-31.68-13.69-71.8-20.61-120.35-20.61
			c-88.59,0-168.33,17.64-239.05,52.18c-70.64,34.62-130.77,81.61-180.24,140.31c-49.55,58.86-87.6,126.7-114.07,203.62
			c-26.39,76.83-39.62,157.13-39.62,241.29c0,124.07,20.68,230.74,61.79,320.35c41.11,89.36,93.8,162.81,158.24,220.68
			c64.35,57.79,137.64,100.74,220.03,129.34c82.22,28.11,164.52,42.54,246.91,42.54c80.07,0,159.73-7.26,238.89-22.26
			c78.99-14.67,159.48-40.15,240.54-77.16c81.15-36.85,162.46-85.16,243.93-144.84c80.98-60.26,163.78-135.53,248.32-225.96
			c42.27-44.1,84.95-93.07,128.13-146.65c43.18-53.51,84.37-105.69,123.41-155.81c39.12-50.62,73.2-95.88,102.98-135.78
			c29.53-39.81,51.7-69.41,66.34-88.37h547.17l-152.53,421.42c-24.81,73.94-42.6,130.08-56.74,176.33
			c-3.23,11.46-7.94,26.05-10.75,35.86c-8.85,31.99-13.15,55.89-15.55,76.25c-1.24,10.96-2.65,22.26-1.98,29.68
			c1.98,21.51,11.41,33.88,28.29,37.34c16.71,3.13,40.45,4.86,70.48,4.86c62.37,0,124.57,1.24,186.94,4.7
			c61.96,3.05,123.99,4.7,186.44,4.7c333.68,0,616.16-38.99,848.34-117.39C14.49,339.51,208.79,231.11,365.37,91.46
			C501.03-30.47,605-163.19,676.89-305.8c71.88-142.12,115.56-284.24,130.44-426.04C823.79-886.41,812.79-1012.54,774.74-1111.55
			 M-1197.64-491.54l-38.05,105.11h-495.47c29.36-46.25,65.51-99.17,107.45-159.18c42.52-59.94,87.1-121.51,134.66-184.66
			c47.56-62.73,94.87-125.96,142.35-189.11c47.65-63.31,92.98-122.09,136.07-176.66c43.43-54.49,82.39-102.06,117.04-141.96
			c34.99-39.9,62.95-69.49,84.04-88.45c16.71-14.59,32.76-26.63,47.4-36.19c14.72-9.32,25.48-13.93,31.76-13.93
			c6.29,0,13.07,4.61,20.43,13.93c7.53,9.56,6.95,25.8-1.41,48.88L-1197.64-491.54z M351.07-783.28
			c-19.52,167.1-67.99,325.47-145.09,474.59C129.05-159.65,15.73-19.75-133.49,110.58c-49.8,43.2-106.29,83.84-169.49,122.58
			c-63.36,38.42-129.2,71.8-197.69,99.67c-68.57,27.78-139.05,49.79-211.67,66.11c-72.96,15.83-142.6,23.91-209.36,23.91
			c-45.16,0-77.59-13.02-97.44-38.66c-19.85-25.64-17.45-74.03,7.11-144.76l583.23-1643.71c15.3-42.38,31.51-69.5,48.97-80.54
			c8.27-4.87,19.94-8.66,34.58-11.3c15.22-2.72,33.67-4.21,55.67-4.21c83.38,0,157.24,12.45,226.31,31.58
			c20.18,5.61,41.85,9.07,60.8,16.24c83.63,32.23,153.85,79.63,210.76,141.96c57.07,62.33,98.1,137.83,123.16,226.54
			C356.36-994.73,362.89-894.41,351.07-783.28"/>
	</g>
	<path class="st26" d="M0,6.84C0.3,6.37,0.6,6.3,1.12,6.17C1,4.44,2.08,4.59,3.42,4.63C5.28,4.67,8.16,4.5,9.86,4.75
		c1.12,0.16,1.08,0.83,1.05,1.8l0.38,0.05l7.65-6.14c0.43-0.23,0.98-0.33,1.46-0.37c3.66-0.27,7.68,0.2,11.37,0.01
		c0.8,0.05,1.39,0.75,0.82,1.47C32.25,2,29.91,2.92,29.25,3.25c-0.09,0.05-0.16-0.03-0.12,0.16l4.12,3.79
		c0.15,0.12,0.27,0.19,0.46,0.21c1.27,0.17,3.02,0.14,4.34,0.19c2.13,0.09,4.47-0.02,6.56,0.19C46.52,8,46.08,9.9,46.5,11.27
		c1.37,0.18,2.75-0.23,2.89,1.6c0.1,1.29,0,2.31-1.5,2.46l-38.97,0c-1.47-0.14-1.66-0.99-2.51-1.93c-1.35-1.49-2.77-2.79-4.29-4.1
		C1.41,8.68,0.57,8.2,0,7.42V6.84z M28.65,1.73h-8.73C18.09,3.26,16,4.69,14.23,6.27c-0.15,0.14-0.34,0.3-0.44,0.48l10.85,0.39
		c1.54,0.06,3.09,0.04,4.64,0.09c0.54,0.02,1.13,0.23,1.68,0.05l-3.38-3.08c-0.49-0.53-0.64-1.11-0.14-1.7L28.65,1.73z M3.38,5.49
		H1.93v0.77h1.45V5.49z M5.59,5.49H4.15v0.87h1.45V5.49z M8.1,5.49H6.46v0.96H8.1V5.49z M10.13,6.55c-0.03-0.22,0.09-0.8-0.09-0.92
		L8.97,5.59l0,0.97L10.13,6.55z M44.54,9.47L2.99,7.9l4.05,3.81c7.91,0.34,15.86,0.16,23.77,0.44l14.33,0.09
		C44.72,11.39,44.81,10.37,44.54,9.47z M8.73,13.69h39.02l0-0.58c-3.84-0.08-7.69-0.04-11.53-0.09c-7.7-0.11-15.44-0.3-23.14-0.39
		c-1.72-0.02-3.44,0.02-5.16,0.01C7.83,12.7,8.64,13.67,8.73,13.69z"/>
</g>
<g id="Capa_2">
</g>
</svg>
