<svg xmlns="http://www.w3.org/2000/svg" xmlns:xlink="http://www.w3.org/1999/xlink" width="900" zoomAndPan="magnify" viewBox="0 0 675 374.999991" height="500" preserveAspectRatio="xMidYMid meet" version="1.2"><g id="b28ae2cceb"><path style=" stroke:none;fill-rule:nonzero;fill:#d9d9d9;fill-opacity:1;" d="M 667.664062 88.542969 C 662.304688 74.589844 653.535156 61.789062 641.363281 50.25 C 633.363281 42.394531 623.027344 36.097656 610.242188 31.554688 C 597.515625 27.023438 583.652344 23.5 568.695312 21.089844 C 553.742188 18.628906 538.171875 17.007812 522.011719 16.273438 C 520.5 16.21875 519.1875 16.234375 517.714844 16.199219 C 503.097656 15.554688 488.914062 15.140625 475.355469 15.140625 L 468.992188 15.140625 C 467.484375 15.390625 465.777344 15.464844 464.316406 15.75 C 456.28125 17.207031 448.910156 19.347656 442.207031 21.96875 C 435.445312 24.667969 429.28125 27.9375 423.617188 31.820312 C 421.066406 33.582031 418.675781 35.722656 416.195312 37.664062 C 413.15625 40.019531 410.046875 42.195312 407.078125 44.820312 C 401.972656 49.277344 395.734375 55.660156 388.308594 63.839844 C 380.8125 72.054688 372.472656 81.710938 363.230469 92.910156 C 353.992188 104.09375 344.085938 116.40625 333.476562 129.835938 C 322.90625 143.230469 311.796875 157.414062 300.164062 172.316406 C 285.246094 191.699219 270.429688 209.65625 255.652344 226.214844 C 240.894531 242.769531 225.753906 257.261719 210.261719 269.59375 C 194.746094 281.980469 178.617188 291.707031 161.9375 298.699219 C 145.234375 305.726562 127.308594 309.21875 108.273438 309.21875 C 99.589844 309.21875 90.207031 308.28125 80.082031 306.285156 C 69.929688 304.378906 60.542969 300.785156 51.875 295.609375 C 43.230469 290.375 36.074219 283.183594 30.410156 274.085938 C 24.769531 264.976562 21.945312 253.289062 21.945312 239.011719 C 21.945312 230.3125 23.253906 222.960938 25.9375 216.847656 C 28.648438 210.71875 31.777344 205.667969 35.335938 201.601562 C 38.914062 197.609375 42.582031 194.535156 46.320312 192.453125 C 50.042969 190.386719 53.097656 189.359375 55.492188 189.359375 C 58.167969 189.359375 60.921875 189.773438 63.78125 190.691406 C 66.601562 191.574219 69.964844 193.980469 73.828125 197.863281 C 76.253906 200.273438 78.933594 202.71875 81.882812 205.21875 C 84.867188 207.769531 89.054688 209.046875 94.414062 209.046875 C 100.992188 209.046875 106.726562 207.085938 111.652344 203.238281 C 116.5625 199.355469 119.007812 193.242188 119.007812 184.902344 C 119.007812 183.121094 118.484375 180.804688 117.457031 177.960938 C 116.4375 175.140625 114.566406 172.351562 111.851562 169.691406 C 109.191406 166.996094 105.613281 164.695312 101.136719 162.753906 C 96.660156 160.808594 90.996094 159.824219 84.128906 159.824219 C 71.597656 159.824219 60.34375 162.324219 50.351562 167.230469 C 40.371094 172.136719 31.867188 178.808594 24.875 187.128906 C 17.863281 195.472656 12.488281 205.109375 8.75 216.003906 C 5.027344 226.894531 3.15625 238.296875 3.15625 250.230469 C 3.15625 267.832031 6.085938 282.953125 11.894531 295.664062 C 17.699219 308.335938 25.144531 318.746094 34.257812 326.960938 C 43.355469 335.15625 53.710938 341.25 65.359375 345.296875 C 76.972656 349.289062 88.621094 351.339844 100.253906 351.339844 C 111.582031 351.339844 122.835938 350.3125 134.015625 348.175781 C 145.183594 346.089844 156.558594 342.472656 168.011719 337.226562 C 179.484375 331.992188 190.96875 325.144531 202.492188 316.675781 C 213.945312 308.136719 225.648438 297.460938 237.585938 284.625 C 243.554688 278.367188 249.59375 271.425781 255.6875 263.824219 C 261.78125 256.234375 267.609375 248.828125 273.128906 241.730469 C 278.664062 234.554688 283.484375 228.136719 287.691406 222.472656 C 291.859375 216.832031 294.988281 212.625 297.074219 209.945312 L 374.410156 209.945312 L 352.859375 269.71875 C 349.351562 280.199219 346.835938 288.164062 344.839844 294.726562 C 344.390625 296.34375 343.726562 298.410156 343.3125 299.816406 C 342.054688 304.34375 341.460938 307.742188 341.117188 310.636719 C 340.941406 312.183594 340.738281 313.800781 340.832031 314.84375 C 341.117188 317.898438 342.449219 319.644531 344.820312 320.148438 C 347.175781 320.597656 350.539062 320.832031 354.78125 320.832031 C 363.59375 320.832031 372.382812 321.007812 381.207031 321.496094 C 389.964844 321.929688 398.734375 322.160156 407.566406 322.160156 C 454.71875 322.160156 494.648438 316.625 527.476562 305.515625 C 560.265625 294.386719 587.71875 279.015625 609.847656 259.203125 C 629.03125 241.910156 643.71875 223.085938 653.875 202.859375 C 664.03125 182.707031 670.214844 162.554688 672.320312 142.4375 C 674.585938 120.46875 673.039062 102.582031 667.664062 88.542969 M 388.867188 176.46875 L 383.492188 191.371094 L 313.453125 191.371094 C 317.605469 184.8125 322.710938 177.3125 328.644531 168.792969 C 334.644531 160.289062 340.957031 151.550781 347.683594 142.601562 C 354.40625 133.703125 361.09375 124.730469 367.800781 115.777344 C 374.539062 106.808594 380.9375 98.464844 387.035156 90.71875 C 393.164062 82.988281 398.683594 76.246094 403.574219 70.582031 C 408.515625 64.917969 412.472656 60.730469 415.457031 58.03125 C 417.808594 55.96875 420.09375 54.257812 422.160156 52.910156 C 424.246094 51.582031 425.757812 50.933594 426.65625 50.933594 C 427.535156 50.933594 428.507812 51.582031 429.550781 52.910156 C 430.609375 54.257812 430.539062 56.578125 429.351562 59.847656 Z M 607.78125 135.085938 C 605.027344 158.78125 598.160156 181.253906 587.265625 202.394531 C 576.394531 223.535156 560.371094 243.363281 539.285156 261.863281 C 532.238281 267.992188 524.253906 273.746094 515.324219 279.25 C 506.367188 284.695312 497.058594 289.425781 487.382812 293.378906 C 477.695312 297.3125 467.734375 300.445312 457.46875 302.761719 C 447.148438 305.011719 437.316406 306.160156 427.878906 306.160156 C 421.496094 306.160156 416.914062 304.308594 414.105469 300.675781 C 411.304688 297.046875 411.644531 290.179688 415.113281 280.144531 L 497.5625 47.03125 C 499.714844 41.027344 502.019531 37.179688 504.480469 35.617188 C 505.648438 34.933594 507.304688 34.394531 509.371094 34.015625 C 511.53125 33.636719 514.136719 33.421875 517.246094 33.421875 C 529.039062 33.421875 539.464844 35.183594 549.226562 37.898438 C 552.085938 38.691406 555.144531 39.191406 557.820312 40.199219 C 569.652344 44.765625 579.574219 51.492188 587.609375 60.335938 C 595.679688 69.179688 601.472656 79.875 605.011719 92.460938 C 608.515625 105.097656 609.453125 119.335938 607.78125 135.085938 "/></g></svg>