<svg xmlns="http://www.w3.org/2000/svg" xmlns:xlink="http://www.w3.org/1999/xlink" width="1200" zoomAndPan="magnify" viewBox="0 0 900 899.99999" height="1200" preserveAspectRatio="xMidYMid meet" version="1.2"><g id="d0ba4e34ef"><path style=" stroke:none;fill-rule:nonzero;fill:#d9d9d9;fill-opacity:1;" d="M 819.023438 350.65625 C 812.535156 333.761719 801.914062 318.261719 787.175781 304.285156 C 777.488281 294.773438 764.972656 287.152344 749.492188 281.648438 C 734.082031 276.160156 717.296875 271.894531 699.183594 268.976562 C 681.074219 265.996094 662.222656 264.035156 642.652344 263.144531 C 640.824219 263.078125 639.234375 263.097656 637.449219 263.054688 C 619.75 262.273438 602.574219 261.773438 586.160156 261.773438 L 578.453125 261.773438 C 576.625 262.078125 574.558594 262.164062 572.792969 262.511719 C 563.0625 264.273438 554.136719 266.867188 546.019531 270.042969 C 537.832031 273.308594 530.367188 277.269531 523.507812 281.972656 C 520.417969 284.105469 517.523438 286.695312 514.519531 289.046875 C 510.839844 291.898438 507.074219 294.535156 503.480469 297.710938 C 497.300781 303.109375 489.746094 310.839844 480.753906 320.742188 C 471.675781 330.691406 461.578125 342.382812 450.386719 355.945312 C 439.199219 369.484375 427.203125 384.394531 414.359375 400.65625 C 401.558594 416.875 388.105469 434.050781 374.019531 452.097656 C 355.953125 475.566406 338.015625 497.3125 320.121094 517.363281 C 302.25 537.410156 283.917969 554.957031 265.15625 569.890625 C 246.367188 584.890625 226.839844 596.667969 206.640625 605.132812 C 186.414062 613.644531 164.710938 617.871094 141.660156 617.871094 C 131.144531 617.871094 119.78125 616.738281 107.523438 614.320312 C 95.226562 612.011719 83.863281 607.660156 73.367188 601.390625 C 62.898438 595.054688 54.234375 586.347656 47.375 575.332031 C 40.542969 564.296875 37.125 550.144531 37.125 532.859375 C 37.125 522.324219 38.710938 513.421875 41.957031 506.019531 C 45.242188 498.597656 49.03125 492.480469 53.339844 487.558594 C 57.671875 482.726562 62.113281 479.003906 66.640625 476.480469 C 71.148438 473.976562 74.847656 472.734375 77.746094 472.734375 C 80.988281 472.734375 84.320312 473.234375 87.78125 474.347656 C 91.199219 475.414062 95.269531 478.328125 99.949219 483.03125 C 102.886719 485.949219 106.132812 488.910156 109.703125 491.9375 C 113.316406 495.027344 118.386719 496.574219 124.875 496.574219 C 132.84375 496.574219 139.785156 494.199219 145.75 489.539062 C 151.695312 484.839844 154.65625 477.4375 154.65625 467.335938 C 154.65625 465.179688 154.023438 462.375 152.78125 458.933594 C 151.542969 455.515625 149.277344 452.140625 145.992188 448.917969 C 142.769531 445.65625 138.4375 442.867188 133.015625 440.515625 C 127.597656 438.164062 120.738281 436.96875 112.421875 436.96875 C 97.25 436.96875 83.621094 439.996094 71.519531 445.9375 C 59.4375 451.878906 49.140625 459.957031 40.671875 470.035156 C 32.183594 480.136719 25.671875 491.804688 21.144531 504.996094 C 16.640625 518.1875 14.375 531.992188 14.375 546.445312 C 14.375 567.757812 17.921875 586.066406 24.953125 601.457031 C 31.984375 616.800781 41 629.40625 52.035156 639.355469 C 63.050781 649.28125 75.589844 656.660156 89.695312 661.558594 C 103.757812 666.394531 117.863281 668.875 131.949219 668.875 C 145.664062 668.875 159.292969 667.632812 172.832031 665.042969 C 186.351562 662.519531 200.128906 658.140625 213.996094 651.785156 C 227.886719 645.449219 241.796875 637.15625 255.75 626.902344 C 269.617188 616.5625 283.789062 603.632812 298.242188 588.089844 C 305.46875 580.515625 312.785156 572.109375 320.164062 562.902344 C 327.542969 553.714844 334.597656 544.746094 341.28125 536.148438 C 347.984375 527.460938 353.820312 519.691406 358.914062 512.832031 C 363.964844 506 367.75 500.90625 370.277344 497.660156 L 463.925781 497.660156 L 437.828125 570.042969 C 433.582031 582.734375 430.535156 592.378906 428.117188 600.324219 C 427.574219 602.28125 426.769531 604.785156 426.265625 606.484375 C 424.742188 611.96875 424.023438 616.085938 423.609375 619.589844 C 423.394531 621.460938 423.152344 623.421875 423.261719 624.683594 C 423.609375 628.382812 425.222656 630.496094 428.09375 631.105469 C 430.945312 631.648438 435.019531 631.933594 440.15625 631.933594 C 450.824219 631.933594 461.46875 632.148438 472.15625 632.738281 C 482.757812 633.261719 493.378906 633.542969 504.070312 633.542969 C 561.167969 633.542969 609.519531 626.839844 649.269531 613.386719 C 688.976562 599.910156 722.21875 581.296875 749.015625 557.308594 C 772.242188 536.367188 790.027344 513.574219 802.328125 489.082031 C 814.625 464.679688 822.113281 440.277344 824.660156 415.917969 C 827.40625 389.316406 825.53125 367.65625 819.023438 350.65625 M 481.429688 457.125 L 474.921875 475.171875 L 390.109375 475.171875 C 395.136719 467.226562 401.320312 458.148438 408.503906 447.832031 C 415.773438 437.535156 423.414062 426.953125 431.558594 416.113281 C 439.699219 405.339844 447.796875 394.476562 455.917969 383.632812 C 464.078125 372.773438 471.828125 362.671875 479.210938 353.289062 C 486.632812 343.929688 493.316406 335.765625 499.238281 328.90625 C 505.222656 322.050781 510.011719 316.976562 513.625 313.710938 C 516.476562 311.210938 519.242188 309.140625 521.746094 307.507812 C 524.269531 305.898438 526.101562 305.113281 527.1875 305.113281 C 528.253906 305.113281 529.429688 305.898438 530.691406 307.507812 C 531.976562 309.140625 531.890625 311.949219 530.453125 315.910156 Z M 746.511719 407.015625 C 743.179688 435.707031 734.863281 462.917969 721.671875 488.519531 C 708.503906 514.117188 689.105469 538.128906 663.570312 560.53125 C 655.039062 567.953125 645.371094 574.917969 634.554688 581.582031 C 623.710938 588.175781 612.4375 593.902344 600.722656 598.691406 C 588.992188 603.457031 576.929688 607.246094 564.5 610.054688 C 552.003906 612.777344 540.097656 614.167969 528.667969 614.167969 C 520.941406 614.167969 515.390625 611.925781 511.992188 607.527344 C 508.597656 603.132812 509.011719 594.816406 513.210938 582.667969 L 613.046875 300.390625 C 615.65625 293.117188 618.445312 288.460938 621.425781 286.566406 C 622.839844 285.738281 624.84375 285.085938 627.347656 284.628906 C 629.960938 284.171875 633.117188 283.910156 636.882812 283.910156 C 651.164062 283.910156 663.789062 286.042969 675.609375 289.332031 C 679.070312 290.289062 682.773438 290.898438 686.015625 292.117188 C 700.339844 297.648438 712.355469 305.789062 722.085938 316.5 C 731.859375 327.210938 738.871094 340.160156 743.160156 355.398438 C 747.402344 370.703125 748.535156 387.945312 746.511719 407.015625 "/></g></svg>