<?xml version="1.0" encoding="utf-8"?>
<!-- Generator: Adobe Illustrator 29.5.1, SVG Export Plug-In . SVG Version: 9.03 Build 0)  -->
<svg version="1.0" xmlns="http://www.w3.org/2000/svg" xmlns:xlink="http://www.w3.org/1999/xlink" x="0px" y="0px"
	 viewBox="0 0 45.8 31.23" style="enable-background:new 0 0 45.8 31.23;" xml:space="preserve">
<style type="text/css">
	.st0{opacity:0.1;clip-path:url(#SVGID_00000148625065627251044980000005282972348243714492_);fill:#615D59;}
	.st1{opacity:0.1;clip-path:url(#SVGID_00000178924374365312764950000016851705794413742519_);fill:#615D59;}
	.st2{fill:#F6F6F6;}
	.st3{opacity:0.1;clip-path:url(#SVGID_00000133514785307926458320000008795990917574231452_);fill:#615D59;}
	.st4{opacity:0.1;clip-path:url(#SVGID_00000104664588437487557770000014662906978089021322_);fill:#615D59;}
	.st5{opacity:0.1;clip-path:url(#SVGID_00000047058174727443767540000012593488465833331857_);fill:#615D59;}
	.st6{fill:#9E703C;}
	.st7{fill:#615D59;}
	.st8{clip-path:url(#SVGID_00000088130081105540011900000007102110231652440223_);}
	.st9{clip-path:url(#SVGID_00000139289613613645648290000012839158958167438763_);}
	.st10{fill:#EDEDED;}
	.st11{clip-path:url(#SVGID_00000031197266567256906440000011530967013837878448_);fill:#EDEDED;}
	.st12{opacity:0.75;}
	.st13{fill:#DBDAD9;}
	.st14{clip-path:url(#SVGID_00000040555381283680772450000001676289695313318018_);fill:#EDEDED;}
	.st15{opacity:0.95;}
	.st16{opacity:0.1;clip-path:url(#SVGID_00000117636645785782417180000009609943304098774160_);fill:#615D59;}
	.st17{opacity:0.1;fill:#615D59;}
	.st18{opacity:0.1;fill:#9E703C;}
	.st19{opacity:0.85;fill:#EDEDED;}
	.st20{fill:#FFFFFF;}
	.st21{opacity:0.9;fill:#EDEDED;}
	.st22{fill:none;stroke:#9E703C;stroke-miterlimit:10;}
	.st23{opacity:0.79;fill:#A5BAC9;}
	.st24{clip-path:url(#SVGID_00000013914802199589993880000016266023922305849522_);}
	.st25{fill:none;stroke:#A5BAC9;stroke-miterlimit:10;}
	.st26{fill:#A5BAC9;}
	.st27{opacity:0.1;clip-path:url(#SVGID_00000131357152004633320800000002507031091063506574_);fill:#615D59;}
	.st28{opacity:0.61;fill:#EDEDED;}
	.st29{fill:#75858F;}
	.st30{fill:#A19F9C;}
	.st31{fill:none;stroke:#9E703C;stroke-width:0.4;stroke-miterlimit:10;}
	.st32{fill:#B0865A;}
	.st33{opacity:0.1;clip-path:url(#SVGID_00000094594899434525592140000016737811806486573710_);fill:#615D59;}
	.st34{opacity:0.1;clip-path:url(#SVGID_00000162310078500165422590000005602134876001983382_);fill:#615D59;}
	.st35{opacity:0.8;fill:#F6F6F6;}
	.st36{opacity:0.1;clip-path:url(#SVGID_00000121279239155631869500000017839882588715991486_);fill:#9E703C;}
	.st37{opacity:0.1;clip-path:url(#SVGID_00000099662211610379883490000012720758750322408613_);fill:#615D59;}
	.st38{opacity:0.79;fill:#9E703C;}
	.st39{clip-path:url(#SVGID_00000103258799708004606160000009121084099975746720_);}
	.st40{fill:#C7C6C4;}
	.st41{fill:none;stroke:#9E703C;stroke-width:0.25;stroke-miterlimit:10;}
	.st42{fill:#DEDEDD;}
	.st43{fill:#C9A989;}
	.st44{fill:#7A7673;}
	.st45{fill:none;stroke:#9E703C;stroke-width:0.25;stroke-linecap:round;stroke-miterlimit:10;}
	.st46{fill:none;stroke:#EDEDED;stroke-miterlimit:10;}
	.st47{opacity:0.6;}
	.st48{clip-path:url(#SVGID_00000149364221912683102420000000236338217940374959_);}
	.st49{opacity:0.47;fill:#EDEDED;}
	.st50{opacity:0.24;}
	.st51{clip-path:url(#SVGID_00000128471905119436261150000007569454927461242047_);}
	.st52{opacity:0.1;clip-path:url(#SVGID_00000091706899669288269660000001277178705637835162_);fill:#615D59;}
	.st53{fill:none;stroke:#A5BAC9;stroke-width:0.4;stroke-miterlimit:10;}
	.st54{opacity:0.1;clip-path:url(#SVGID_00000109716365674046960200000012301308265091665071_);fill:#615D59;}
	.st55{opacity:0.1;clip-path:url(#SVGID_00000132072462782518437390000002203349137226116537_);fill:#615D59;}
	.st56{opacity:0.86;}
	.st57{opacity:0.1;fill:#A5BAC9;}
	.st58{fill:none;stroke:#75858F;stroke-width:0.25;stroke-miterlimit:10;}
	.st59{fill:none;stroke:#A19F9C;stroke-width:0.5;stroke-miterlimit:10;}
	.st60{fill:none;stroke:#75858F;stroke-width:0.5;stroke-miterlimit:10;}
	.st61{fill:none;stroke:#A5BAC9;stroke-width:0.25;stroke-miterlimit:10;}
	.st62{fill:none;stroke:#FFFFFF;stroke-width:0.5;stroke-miterlimit:10;}
	.st63{fill:none;stroke:#615D59;stroke-width:0.25;stroke-miterlimit:10;}
	.st64{fill:none;stroke:#615D59;stroke-width:0.25;stroke-miterlimit:10;stroke-dasharray:1.0064,2.0127;}
	.st65{fill:none;stroke:#615D59;stroke-width:0.25;stroke-miterlimit:10;stroke-dasharray:1.0075,2.015;}
	.st66{opacity:0.86;fill:#EDEDED;}
	.st67{fill:#B0ADAB;}
	.st68{opacity:0.17;fill:#615D59;}
	.st69{fill:none;stroke:#615D59;stroke-width:0.25;stroke-miterlimit:10;stroke-dasharray:1.0001,2.0002;}
	.st70{fill:none;stroke:#615D59;stroke-width:0.25;stroke-miterlimit:10;stroke-dasharray:1.0028,2.0055;}
	.st71{opacity:0.77;fill:#C3A17E;}
	.st72{opacity:0.28;fill:#9E703C;}
</style>
<g id="Capa_1">
	<g>
		<defs>
			<rect id="SVGID_00000044160125533231651800000006948920919940330137_" x="-1682.52" y="742.67" width="1296.91" height="574.7"/>
		</defs>
		<clipPath id="SVGID_00000003082436092196943430000010415292266103840172_">
			<use xlink:href="#SVGID_00000044160125533231651800000006948920919940330137_"  style="overflow:visible;"/>
		</clipPath>
		<path style="clip-path:url(#SVGID_00000003082436092196943430000010415292266103840172_);fill:#EDEDED;" d="M891.21,330.13
			c-30.11-78.48-79.47-150.39-147.89-215.27C698.29,70.69,640.18,35.33,568.34,9.76c-71.58-25.5-149.47-45.29-233.54-58.83
			c-84.07-13.8-171.62-22.94-262.53-27.08c-8.48-0.33-15.84-0.2-24.12-0.39c-82.16-3.68-161.96-5.92-238.08-5.92h-35.76
			c-8.48,1.38-18.08,1.84-26.29,3.48c-45.22,8.15-86.63,20.18-124.3,34.97c-37.99,15.12-72.63,33.59-104.51,55.34
			c-14.33,9.86-27.8,21.95-41.74,32.8c-17.09,13.28-34.57,25.5-51.27,40.23c-28.73,25.11-63.76,60.93-105.56,106.94
			c-42.13,46.21-89,100.51-140.99,163.41c-51.93,62.84-107.6,132.05-167.28,207.58c-59.42,75.33-121.93,155.06-187.27,238.86
			c-83.87,108.98-167.15,209.88-250.3,303.02c-82.95,93.08-168.07,174.52-255.17,243.93c-87.22,69.67-177.93,124.36-271.73,163.61
			c-93.86,39.5-194.63,59.09-301.7,59.09c-48.77,0-101.62-5.26-158.48-16.5c-57.06-10.72-109.84-30.89-158.61-60.01
			c-48.58-29.45-88.87-69.81-120.68-121.01c-31.75-51.2-47.66-116.93-47.66-197.19c0-48.9,7.36-90.25,22.41-124.63
			c15.25-34.51,32.8-62.84,52.85-85.71c20.11-22.48,40.69-39.77,61.72-51.47c20.97-11.63,38.06-17.42,51.53-17.42
			c15.05,0,30.56,2.37,46.6,7.43c15.91,4.99,34.77,18.53,56.46,40.29c13.61,13.54,28.66,27.28,45.29,41.35
			c16.76,14.33,40.29,21.49,70.46,21.49c37.01,0,69.22-10.98,96.89-32.6c27.61-21.82,41.34-56.2,41.34-103.13
			c0-9.99-2.89-23.07-8.74-39.04c-5.78-15.84-16.3-31.49-31.49-46.54c-14.92-15.18-35.1-28.13-60.21-39.04
			c-25.17-10.91-57.06-16.43-95.64-16.43c-70.4,0-133.76,14.07-189.96,41.61c-56.13,27.61-103.92,65.07-143.23,111.88
			c-39.37,46.93-69.61,101.03-90.64,162.35c-20.97,61.26-31.48,125.28-31.48,192.39c0,98.93,16.43,183.98,49.1,255.43
			c32.67,71.25,74.54,129.82,125.74,175.96c51.14,46.08,109.38,80.32,174.84,103.13c65.34,22.41,130.74,33.92,196.21,33.92
			c63.63,0,126.93-5.79,189.83-17.75c62.77-11.7,126.73-32.01,191.15-61.52c64.48-29.38,129.1-67.9,193.84-115.49
			c64.35-48.05,130.15-108.06,197.33-180.17c33.59-35.17,67.5-74.21,101.82-116.93c34.31-42.66,67.04-84.27,98.07-124.23
			c31.09-40.36,58.17-76.45,81.83-108.26c23.47-31.75,41.08-55.34,52.72-70.46h434.81l-121.21,336.02
			c-19.72,58.96-33.85,103.72-45.09,140.6c-2.56,9.14-6.31,20.77-8.54,28.59c-7.03,25.5-10.45,44.56-12.36,60.8
			c-0.98,8.74-2.1,17.75-1.58,23.66c1.58,17.15,9.07,27.01,22.48,29.78c13.28,2.5,32.14,3.88,56,3.88
			c49.56,0,98.99,0.98,148.55,3.75c49.23,2.43,98.53,3.75,148.16,3.75c265.16,0,489.63-31.09,674.14-93.6
			c184.31-62.58,338.71-149.01,463.14-260.36c107.8-97.22,190.42-203.04,247.54-316.76c57.12-113.32,91.83-226.64,103.66-339.7
			C930.19,509.64,921.44,409.08,891.21,330.13 M-676.15,824.49l-30.24,83.81h-393.73c23.33-36.87,52.06-79.07,85.38-126.92
			c33.79-47.79,69.22-96.89,107.01-147.24c37.79-50.02,75.39-100.43,113.12-150.78c37.86-50.48,73.88-97.35,108.13-140.86
			c34.51-43.45,65.47-81.38,93.01-113.19c27.8-31.81,50.02-55.41,66.78-70.53c13.28-11.63,26.03-21.23,37.66-28.85
			c11.7-7.43,20.24-11.11,25.24-11.11c4.99,0,10.38,3.68,16.23,11.11c5.98,7.62,5.52,20.57-1.12,38.98L-676.15,824.49z
			 M554.53,591.87c-15.51,133.24-54.03,259.51-115.29,378.41c-61.13,118.84-151.18,230.39-269.76,334.31
			c-39.57,34.44-84.46,66.85-134.68,97.74c-50.35,30.63-102.67,57.25-157.1,79.47c-54.49,22.15-110.49,39.7-168.2,52.72
			c-57.97,12.62-113.32,19.06-166.37,19.06c-35.89,0-61.65-10.38-77.43-30.83c-15.78-20.44-13.87-59.03,5.65-115.42L-65.18,96.72
			c12.16-33.79,25.04-55.41,38.91-64.22c6.57-3.88,15.84-6.9,27.48-9.01c12.1-2.17,26.75-3.35,44.24-3.35
			c66.26,0,124.95,9.93,179.84,25.18c16.04,4.47,33.26,7.23,48.31,12.95c66.46,25.7,122.26,63.5,167.48,113.19
			c45.35,49.7,77.96,109.9,97.87,180.63C558.74,423.28,563.93,503.27,554.53,591.87"/>
	</g>
	<path class="st6" d="M0,31.23V0h4.16v20.82h16.66V4.16h16.66c2.29,0,4.25,0.82,5.88,2.45c1.63,1.63,2.45,3.59,2.45,5.88v18.74
		h-4.16v-6.25H4.16v6.25H0z M12.49,18.74c-1.73,0-3.21-0.61-4.42-1.82c-1.21-1.21-1.82-2.69-1.82-4.42s0.61-3.21,1.82-4.42
		s2.69-1.82,4.42-1.82s3.21,0.61,4.42,1.82c1.21,1.21,1.82,2.69,1.82,4.42s-0.61,3.21-1.82,4.42C15.7,18.13,14.23,18.74,12.49,18.74
		z M24.98,20.82h16.66v-8.33c0-1.15-0.41-2.13-1.22-2.94c-0.82-0.82-1.8-1.22-2.94-1.22H24.98V20.82z M12.49,14.57
		c0.59,0,1.08-0.2,1.48-0.6s0.6-0.89,0.6-1.48c0-0.59-0.2-1.08-0.6-1.48c-0.4-0.4-0.89-0.6-1.48-0.6s-1.08,0.2-1.48,0.6
		c-0.4,0.4-0.6,0.89-0.6,1.48c0,0.59,0.2,1.08,0.6,1.48C11.41,14.37,11.9,14.57,12.49,14.57z M24.98,8.33v12.49V8.33z"/>
</g>
<g id="Capa_2">
</g>
</svg>
