<svg xmlns="http://www.w3.org/2000/svg" xmlns:xlink="http://www.w3.org/1999/xlink" width="400" zoomAndPan="magnify" viewBox="0 0 300 299.999988" height="400" preserveAspectRatio="xMidYMid meet" version="1.2"><g id="a83c35c6b5"><path style=" stroke:none;fill-rule:nonzero;fill:#ffffff;fill-opacity:1;" d="M 239.414062 128.375 C 237.679688 123.863281 234.84375 119.722656 230.910156 115.992188 C 228.320312 113.453125 224.980469 111.417969 220.847656 109.945312 C 216.730469 108.480469 212.25 107.34375 207.414062 106.5625 C 202.578125 105.769531 197.542969 105.246094 192.316406 105.007812 C 191.828125 104.988281 191.40625 104.996094 190.929688 104.984375 C 186.203125 104.773438 181.617188 104.640625 177.234375 104.640625 L 175.175781 104.640625 C 174.6875 104.722656 174.136719 104.746094 173.664062 104.835938 C 171.066406 105.308594 168.683594 106 166.515625 106.847656 C 164.328125 107.722656 162.335938 108.777344 160.503906 110.035156 C 159.679688 110.605469 158.90625 111.296875 158.101562 111.921875 C 157.121094 112.683594 156.113281 113.386719 155.15625 114.238281 C 153.503906 115.679688 151.488281 117.742188 149.085938 120.386719 C 146.664062 123.042969 143.964844 126.164062 140.976562 129.785156 C 137.992188 133.402344 134.789062 137.382812 131.359375 141.726562 C 127.941406 146.054688 124.347656 150.644531 120.585938 155.460938 C 115.761719 161.726562 110.972656 167.535156 106.195312 172.886719 C 101.421875 178.242188 96.527344 182.925781 91.515625 186.914062 C 86.5 190.917969 81.285156 194.0625 75.890625 196.324219 C 70.492188 198.597656 64.695312 199.726562 58.539062 199.726562 C 55.734375 199.726562 52.699219 199.425781 49.425781 198.777344 C 46.140625 198.164062 43.109375 197 40.304688 195.324219 C 37.511719 193.632812 35.195312 191.308594 33.367188 188.367188 C 31.539062 185.421875 30.628906 181.640625 30.628906 177.027344 C 30.628906 174.214844 31.050781 171.835938 31.917969 169.859375 C 32.796875 167.878906 33.808594 166.246094 34.957031 164.929688 C 36.113281 163.640625 37.300781 162.644531 38.511719 161.972656 C 39.714844 161.304688 40.703125 160.972656 41.472656 160.972656 C 42.339844 160.972656 43.230469 161.105469 44.152344 161.402344 C 45.066406 161.6875 46.152344 162.464844 47.402344 163.722656 C 48.1875 164.5 49.054688 165.289062 50.007812 166.097656 C 50.972656 166.925781 52.328125 167.335938 54.058594 167.335938 C 56.1875 167.335938 58.042969 166.703125 59.632812 165.460938 C 61.21875 164.203125 62.011719 162.226562 62.011719 159.53125 C 62.011719 158.953125 61.84375 158.207031 61.511719 157.285156 C 61.179688 156.375 60.574219 155.472656 59.699219 154.613281 C 58.835938 153.742188 57.679688 152.996094 56.234375 152.367188 C 54.785156 151.742188 52.953125 151.421875 50.734375 151.421875 C 46.683594 151.421875 43.042969 152.230469 39.8125 153.816406 C 36.585938 155.402344 33.835938 157.558594 31.574219 160.25 C 29.308594 162.949219 27.570312 166.0625 26.359375 169.585938 C 25.15625 173.109375 24.554688 176.792969 24.554688 180.652344 C 24.554688 186.34375 25.5 191.234375 27.378906 195.34375 C 29.257812 199.441406 31.664062 202.808594 34.609375 205.464844 C 37.550781 208.113281 40.898438 210.085938 44.664062 211.390625 C 48.421875 212.683594 52.1875 213.34375 55.949219 213.34375 C 59.609375 213.34375 63.25 213.015625 66.863281 212.324219 C 70.476562 211.648438 74.152344 210.480469 77.855469 208.78125 C 81.566406 207.089844 85.28125 204.875 89.007812 202.136719 C 92.707031 199.378906 96.492188 195.925781 100.351562 191.773438 C 102.28125 189.75 104.234375 187.507812 106.207031 185.046875 C 108.175781 182.597656 110.058594 180.199219 111.84375 177.90625 C 113.636719 175.585938 115.191406 173.511719 116.554688 171.679688 C 117.902344 169.855469 118.914062 168.492188 119.585938 167.628906 L 144.59375 167.628906 L 137.625 186.957031 C 136.492188 190.34375 135.675781 192.917969 135.03125 195.039062 C 134.886719 195.5625 134.671875 196.234375 134.539062 196.6875 C 134.132812 198.152344 133.9375 199.25 133.828125 200.183594 C 133.769531 200.683594 133.707031 201.207031 133.734375 201.546875 C 133.828125 202.535156 134.257812 203.097656 135.027344 203.261719 C 135.789062 203.40625 136.875 203.480469 138.246094 203.480469 C 141.09375 203.480469 143.9375 203.539062 146.792969 203.695312 C 149.621094 203.835938 152.457031 203.910156 155.3125 203.910156 C 170.558594 203.910156 183.46875 202.121094 194.085938 198.527344 C 204.6875 194.929688 213.5625 189.960938 220.71875 183.554688 C 226.921875 177.964844 231.671875 171.875 234.953125 165.335938 C 238.238281 158.820312 240.238281 152.304688 240.917969 145.800781 C 241.652344 138.695312 241.152344 132.914062 239.414062 128.375 M 149.269531 156.804688 L 147.53125 161.625 L 124.882812 161.625 C 126.226562 159.5 127.875 157.078125 129.792969 154.320312 C 131.734375 151.574219 133.777344 148.746094 135.949219 145.851562 C 138.125 142.976562 140.285156 140.074219 142.453125 137.179688 C 144.632812 134.28125 146.703125 131.582031 148.675781 129.078125 C 150.65625 126.578125 152.441406 124.398438 154.023438 122.566406 C 155.621094 120.734375 156.898438 119.382812 157.863281 118.507812 C 158.625 117.839844 159.363281 117.289062 160.03125 116.851562 C 160.707031 116.421875 161.195312 116.214844 161.484375 116.214844 C 161.769531 116.214844 162.085938 116.421875 162.421875 116.851562 C 162.765625 117.289062 162.742188 118.039062 162.359375 119.097656 Z M 220.050781 143.421875 C 219.160156 151.085938 216.941406 158.351562 213.417969 165.1875 C 209.902344 172.023438 204.722656 178.433594 197.902344 184.414062 C 195.625 186.398438 193.042969 188.257812 190.15625 190.035156 C 187.261719 191.796875 184.25 193.328125 181.121094 194.605469 C 177.988281 195.878906 174.769531 196.890625 171.449219 197.640625 C 168.113281 198.367188 164.933594 198.738281 161.882812 198.738281 C 159.816406 198.738281 158.335938 198.140625 157.429688 196.964844 C 156.523438 195.789062 156.632812 193.570312 157.753906 190.328125 L 184.410156 114.953125 C 185.109375 113.011719 185.855469 111.765625 186.648438 111.261719 C 187.027344 111.039062 187.5625 110.867188 188.230469 110.742188 C 188.929688 110.621094 189.769531 110.550781 190.777344 110.550781 C 194.589844 110.550781 197.960938 111.121094 201.117188 112 C 202.042969 112.253906 203.03125 112.417969 203.898438 112.742188 C 207.722656 114.21875 210.929688 116.394531 213.527344 119.253906 C 216.136719 122.113281 218.011719 125.570312 219.15625 129.640625 C 220.289062 133.726562 220.589844 138.332031 220.050781 143.421875 "/></g></svg>