<?xml version="1.0" encoding="utf-8"?>
<!-- Generator: Adobe Illustrator 29.5.1, SVG Export Plug-In . SVG Version: 9.03 Build 0)  -->
<svg version="1.0" xmlns="http://www.w3.org/2000/svg" xmlns:xlink="http://www.w3.org/1999/xlink" x="0px" y="0px"
	 viewBox="0 0 516.1 485.74" style="enable-background:new 0 0 516.1 485.74;" xml:space="preserve">
<style type="text/css">
	.st0{opacity:0.1;clip-path:url(#SVGID_00000051383032019658175580000008460688316589499065_);fill:#615D59;}
	.st1{opacity:0.1;clip-path:url(#SVGID_00000175315524222419097560000016993744925066385329_);fill:#615D59;}
	.st2{fill:#F6F6F6;}
	.st3{opacity:0.1;clip-path:url(#SVGID_00000138546344875504544850000009520487084122459560_);fill:#615D59;}
	.st4{opacity:0.1;clip-path:url(#SVGID_00000038397542381367874020000001905497330085095593_);fill:#615D59;}
	.st5{opacity:0.1;clip-path:url(#SVGID_00000044161035598897727130000010128484946951967878_);fill:#615D59;}
	.st6{fill:#9E703C;}
	.st7{fill:#615D59;}
	.st8{clip-path:url(#SVGID_00000074439198502290962960000010559109106901289917_);}
	.st9{clip-path:url(#SVGID_00000139999269545839662760000010258798841880982155_);}
	.st10{fill:#EDEDED;}
	.st11{clip-path:url(#SVGID_00000054953113857218094090000010489026000791358383_);fill:#EDEDED;}
	.st12{opacity:0.75;}
	.st13{fill:#DBDAD9;}
	.st14{clip-path:url(#SVGID_00000101789251661088192780000012748976436975129226_);fill:#EDEDED;}
	.st15{opacity:0.95;}
	.st16{opacity:0.1;clip-path:url(#SVGID_00000026877219366380737470000005458329209298347952_);fill:#615D59;}
	.st17{opacity:0.1;fill:#615D59;}
	.st18{opacity:0.1;fill:#9E703C;}
	.st19{opacity:0.85;fill:#EDEDED;}
	.st20{fill:#FFFFFF;}
	.st21{opacity:0.9;fill:#EDEDED;}
	.st22{fill:none;stroke:#9E703C;stroke-miterlimit:10;}
	.st23{opacity:0.79;fill:#A5BAC9;}
	.st24{clip-path:url(#SVGID_00000170988589138871154590000016617403335990304410_);}
	.st25{fill:none;stroke:#A5BAC9;stroke-miterlimit:10;}
	.st26{fill:#A5BAC9;}
	.st27{opacity:0.1;clip-path:url(#SVGID_00000106859085494269615240000015786229815034697373_);fill:#615D59;}
	.st28{opacity:0.61;fill:#EDEDED;}
	.st29{fill:#75858F;}
	.st30{fill:#A19F9C;}
	.st31{fill:none;stroke:#9E703C;stroke-width:0.4;stroke-miterlimit:10;}
	.st32{fill:#B0865A;}
	.st33{opacity:0.1;clip-path:url(#SVGID_00000122702169570623160250000017807534851346710964_);fill:#615D59;}
	.st34{opacity:0.1;clip-path:url(#SVGID_00000085243494803518277380000006421313492052501919_);fill:#615D59;}
	.st35{opacity:0.8;fill:#F6F6F6;}
	.st36{opacity:0.1;clip-path:url(#SVGID_00000003806873348458000600000001492760213918855594_);fill:#9E703C;}
	.st37{opacity:0.1;clip-path:url(#SVGID_00000127733388517946098260000002334626955160588477_);fill:#615D59;}
	.st38{opacity:0.79;fill:#9E703C;}
	.st39{clip-path:url(#SVGID_00000075864511375452500190000017896394769294481317_);}
	.st40{fill:#C7C6C4;}
	.st41{fill:none;stroke:#9E703C;stroke-width:0.25;stroke-miterlimit:10;}
	.st42{fill:#DEDEDD;}
	.st43{fill:#C9A989;}
	.st44{fill:#7A7673;}
	.st45{fill:none;stroke:#9E703C;stroke-width:0.25;stroke-linecap:round;stroke-miterlimit:10;}
	.st46{fill:none;stroke:#EDEDED;stroke-miterlimit:10;}
	.st47{opacity:0.6;}
	.st48{clip-path:url(#SVGID_00000011016927573386100290000013738708404870366866_);}
	.st49{opacity:0.47;fill:#EDEDED;}
	.st50{opacity:0.24;}
	.st51{clip-path:url(#SVGID_00000029035057656632343160000012116622380298344110_);}
	.st52{opacity:0.1;clip-path:url(#SVGID_00000039828727613289975430000011569213567958129335_);fill:#615D59;}
	.st53{fill:none;stroke:#A5BAC9;stroke-width:0.4;stroke-miterlimit:10;}
	.st54{opacity:0.1;clip-path:url(#SVGID_00000051342999897550838680000008738609016800123819_);fill:#615D59;}
	.st55{opacity:0.1;clip-path:url(#SVGID_00000095306447084095961430000013669532715644392857_);fill:#615D59;}
	.st56{opacity:0.86;}
	.st57{opacity:0.1;fill:#A5BAC9;}
	.st58{fill:none;stroke:#75858F;stroke-width:0.25;stroke-miterlimit:10;}
	.st59{fill:none;stroke:#A19F9C;stroke-width:0.5;stroke-miterlimit:10;}
	.st60{fill:none;stroke:#75858F;stroke-width:0.5;stroke-miterlimit:10;}
	.st61{fill:none;stroke:#A5BAC9;stroke-width:0.25;stroke-miterlimit:10;}
	.st62{fill:none;stroke:#FFFFFF;stroke-width:0.5;stroke-miterlimit:10;}
	.st63{fill:none;stroke:#615D59;stroke-width:0.25;stroke-miterlimit:10;}
	.st64{fill:none;stroke:#615D59;stroke-width:0.25;stroke-miterlimit:10;stroke-dasharray:1.0064,2.0127;}
	.st65{fill:none;stroke:#615D59;stroke-width:0.25;stroke-miterlimit:10;stroke-dasharray:1.0075,2.015;}
	.st66{opacity:0.86;fill:#EDEDED;}
	.st67{fill:#B0ADAB;}
	.st68{opacity:0.17;fill:#615D59;}
	.st69{fill:none;stroke:#615D59;stroke-width:0.25;stroke-miterlimit:10;stroke-dasharray:1.0001,2.0002;}
	.st70{fill:none;stroke:#615D59;stroke-width:0.25;stroke-miterlimit:10;stroke-dasharray:1.0028,2.0055;}
	.st71{opacity:0.77;fill:#C3A17E;}
	.st72{opacity:0.28;fill:#9E703C;}
</style>
<g id="Capa_1">
	<g>
		<defs>
			<rect id="SVGID_00000016062433215794729500000016391716242048057519_" x="-1812.74" y="958.82" width="1296.91" height="574.7"/>
		</defs>
		<clipPath id="SVGID_00000057135701740913999010000017877263826030197158_">
			<use xlink:href="#SVGID_00000016062433215794729500000016391716242048057519_"  style="overflow:visible;"/>
		</clipPath>
		<path style="clip-path:url(#SVGID_00000057135701740913999010000017877263826030197158_);fill:#EDEDED;" d="M760.99,546.28
			c-30.11-78.48-79.47-150.39-147.89-215.27c-45.03-44.17-103.13-79.54-174.97-105.1c-71.58-25.5-149.47-45.29-233.54-58.83
			C120.51,153.28,32.95,144.14-57.95,140c-8.48-0.33-15.84-0.2-24.12-0.39c-82.16-3.68-161.96-5.92-238.08-5.92h-35.76
			c-8.48,1.38-18.08,1.84-26.29,3.48c-45.22,8.15-86.63,20.18-124.3,34.97c-37.99,15.12-72.63,33.59-104.51,55.34
			c-14.33,9.86-27.8,21.95-41.74,32.8c-17.09,13.28-34.57,25.5-51.27,40.23c-28.73,25.11-63.76,60.93-105.56,106.94
			c-42.13,46.21-89,100.51-140.99,163.41c-51.93,62.84-107.6,132.05-167.28,207.58c-59.42,75.33-121.93,155.06-187.27,238.86
			c-83.87,108.98-167.15,209.88-250.3,303.02c-82.95,93.08-168.07,174.52-255.17,243.93c-87.22,69.67-177.93,124.36-271.73,163.61
			c-93.86,39.5-194.63,59.09-301.7,59.09c-48.77,0-101.62-5.26-158.48-16.5c-57.06-10.72-109.84-30.89-158.61-60.01
			c-48.58-29.45-88.87-69.81-120.68-121.01c-31.75-51.2-47.66-116.93-47.66-197.19c0-48.9,7.36-90.25,22.41-124.63
			c15.25-34.51,32.8-62.84,52.85-85.71c20.11-22.48,40.69-39.77,61.72-51.47c20.97-11.63,38.06-17.42,51.53-17.42
			c15.05,0,30.56,2.37,46.6,7.43c15.91,4.99,34.77,18.54,56.46,40.29c13.61,13.54,28.66,27.28,45.29,41.35
			c16.76,14.33,40.29,21.49,70.46,21.49c37.01,0,69.22-10.98,96.89-32.6c27.61-21.82,41.34-56.2,41.34-103.13
			c0-9.99-2.89-23.07-8.74-39.04c-5.78-15.84-16.3-31.49-31.49-46.54c-14.92-15.18-35.1-28.13-60.21-39.04
			c-25.17-10.91-57.06-16.43-95.64-16.43c-70.4,0-133.76,14.07-189.96,41.61c-56.13,27.61-103.92,65.07-143.23,111.88
			c-39.37,46.93-69.61,101.03-90.64,162.35c-20.97,61.26-31.48,125.28-31.48,192.39c0,98.93,16.43,183.98,49.1,255.43
			c32.67,71.25,74.54,129.82,125.74,175.96c51.14,46.08,109.38,80.32,174.84,103.13c65.34,22.41,130.74,33.92,196.21,33.92
			c63.63,0,126.93-5.79,189.83-17.75c62.77-11.7,126.73-32.01,191.14-61.52c64.48-29.38,129.1-67.9,193.84-115.49
			c64.35-48.05,130.15-108.06,197.33-180.17c33.59-35.17,67.5-74.21,101.82-116.93c34.31-42.66,67.04-84.27,98.07-124.23
			c31.09-40.36,58.17-76.45,81.83-108.26c23.47-31.75,41.08-55.34,52.72-70.46H-888l-121.21,336.02
			c-19.72,58.96-33.85,103.72-45.09,140.6c-2.56,9.14-6.31,20.77-8.54,28.59c-7.03,25.5-10.45,44.56-12.36,60.8
			c-0.98,8.74-2.1,17.75-1.58,23.66c1.58,17.15,9.07,27.01,22.48,29.78c13.28,2.5,32.14,3.88,56,3.88
			c49.56,0,98.99,0.98,148.55,3.75c49.23,2.43,98.53,3.75,148.16,3.75c265.16,0,489.63-31.09,674.14-93.6
			c184.31-62.58,338.71-149.01,463.14-260.36c107.8-97.22,190.42-203.04,247.54-316.76c57.12-113.32,91.83-226.64,103.66-339.7
			C799.97,725.79,791.23,625.23,760.99,546.28 M-806.37,1040.64l-30.24,83.81h-393.73c23.33-36.87,52.06-79.07,85.38-126.92
			c33.79-47.79,69.22-96.89,107.01-147.24c37.79-50.02,75.39-100.43,113.12-150.78c37.86-50.48,73.88-97.35,108.13-140.86
			c34.51-43.45,65.47-81.38,93.01-113.19c27.8-31.81,50.02-55.41,66.78-70.53c13.28-11.63,26.03-21.23,37.66-28.85
			c11.7-7.43,20.24-11.11,25.24-11.11c4.99,0,10.38,3.68,16.23,11.11c5.98,7.62,5.52,20.57-1.12,38.98L-806.37,1040.64z
			 M424.32,808.02c-15.51,133.24-54.03,259.51-115.29,378.41c-61.13,118.84-151.18,230.39-269.76,334.31
			c-39.57,34.44-84.46,66.85-134.68,97.74c-50.35,30.63-102.67,57.25-157.1,79.47c-54.49,22.15-110.49,39.7-168.2,52.72
			c-57.97,12.62-113.32,19.06-166.37,19.06c-35.89,0-61.65-10.38-77.43-30.83c-15.78-20.44-13.87-59.03,5.65-115.42l463.47-1310.61
			c12.16-33.79,25.04-55.41,38.91-64.22c6.57-3.88,15.84-6.9,27.48-9.01c12.1-2.17,26.75-3.35,44.24-3.35
			c66.26,0,124.95,9.93,179.84,25.18c16.04,4.47,33.26,7.23,48.31,12.95c66.46,25.7,122.26,63.5,167.48,113.19
			c45.35,49.7,77.96,109.9,97.87,180.63C428.52,639.43,433.72,719.42,424.32,808.02"/>
	</g>
	<g>
		<path class="st6" d="M411.87,197.28c-2.98-7.76-7.86-14.88-14.63-21.3c-4.45-4.37-10.2-7.87-17.31-10.4
			c-7.08-2.52-14.79-4.48-23.11-5.82c-8.32-1.37-16.98-2.27-25.97-2.68c-0.84-0.03-1.57-0.02-2.39-0.04
			c-8.13-0.36-16.02-0.59-23.56-0.59h-3.54c-0.84,0.14-1.79,0.18-2.6,0.34c-4.47,0.81-8.57,2-12.3,3.46
			c-3.76,1.5-7.19,3.32-10.34,5.48c-1.42,0.98-2.75,2.17-4.13,3.25c-1.69,1.31-3.42,2.52-5.07,3.98
			c-2.84,2.48-6.31,6.03-10.44,10.58c-4.17,4.57-8.81,9.94-13.95,16.17c-5.14,6.22-10.65,13.07-16.55,20.54
			c-5.88,7.45-12.06,15.34-18.53,23.63c-8.3,10.78-16.54,20.77-24.76,29.98c-8.21,9.21-16.63,17.27-25.25,24.13
			c-8.63,6.89-17.6,12.3-26.88,16.19c-9.29,3.91-19.26,5.85-29.85,5.85c-4.83,0-10.05-0.52-15.68-1.63
			c-5.65-1.06-10.87-3.06-15.69-5.94c-4.81-2.91-8.79-6.91-11.94-11.97c-3.14-5.07-4.71-11.57-4.71-19.51
			c0-4.84,0.73-8.93,2.22-12.33c1.51-3.41,3.25-6.22,5.23-8.48c1.99-2.22,4.03-3.93,6.11-5.09c2.07-1.15,3.77-1.72,5.1-1.72
			c1.49,0,3.02,0.23,4.61,0.74c1.57,0.49,3.44,1.83,5.59,3.99c1.35,1.34,2.84,2.7,4.48,4.09c1.66,1.42,3.99,2.13,6.97,2.13
			c3.66,0,6.85-1.09,9.59-3.23c2.73-2.16,4.09-5.56,4.09-10.2c0-0.99-0.29-2.28-0.86-3.86c-0.57-1.57-1.61-3.12-3.12-4.6
			c-1.48-1.5-3.47-2.78-5.96-3.86c-2.49-1.08-5.64-1.63-9.46-1.63c-6.97,0-13.23,1.39-18.79,4.12c-5.55,2.73-10.28,6.44-14.17,11.07
			c-3.9,4.64-6.89,10-8.97,16.06c-2.07,6.06-3.11,12.4-3.11,19.04c0,9.79,1.63,18.2,4.86,25.27c3.23,7.05,7.37,12.84,12.44,17.41
			c5.06,4.56,10.82,7.95,17.3,10.2c6.46,2.22,12.94,3.36,19.41,3.36c6.3,0,12.56-0.57,18.78-1.76c6.21-1.16,12.54-3.17,18.91-6.09
			c6.38-2.91,12.77-6.72,19.18-11.43c6.37-4.75,12.88-10.69,19.52-17.83c3.32-3.48,6.68-7.34,10.07-11.57
			c3.39-4.22,6.63-8.34,9.7-12.29c3.08-3.99,5.76-7.56,8.1-10.71c2.32-3.14,4.06-5.48,5.22-6.97h43.02l-11.99,33.25
			c-1.95,5.83-3.35,10.26-4.46,13.91c-0.25,0.9-0.62,2.05-0.85,2.83c-0.7,2.52-1.03,4.41-1.22,6.02c-0.1,0.86-0.21,1.76-0.16,2.34
			c0.16,1.7,0.9,2.67,2.22,2.95c1.31,0.25,3.18,0.38,5.54,0.38c4.9,0,9.79,0.1,14.7,0.37c4.87,0.24,9.75,0.37,14.66,0.37
			c26.23,0,48.44-3.08,66.7-9.26c18.24-6.19,33.51-14.74,45.82-25.76c10.67-9.62,18.84-20.09,24.49-31.34
			c5.65-11.21,9.09-22.42,10.26-33.61C415.72,215.04,414.86,205.09,411.87,197.28 M256.79,246.19l-2.99,8.29h-38.96
			c2.31-3.65,5.15-7.82,8.45-12.56c3.34-4.73,6.85-9.59,10.59-14.57c3.74-4.95,7.46-9.94,11.19-14.92
			c3.75-4.99,7.31-9.63,10.7-13.94c3.41-4.3,6.48-8.05,9.2-11.2c2.75-3.15,4.95-5.48,6.61-6.98c1.31-1.15,2.58-2.1,3.73-2.85
			c1.16-0.74,2-1.1,2.5-1.1c0.49,0,1.03,0.36,1.61,1.1c0.59,0.75,0.55,2.04-0.11,3.86L256.79,246.19z M378.56,223.17
			c-1.53,13.18-5.35,25.68-11.41,37.44c-6.05,11.76-14.96,22.79-26.69,33.08c-3.92,3.41-8.36,6.61-13.33,9.67
			c-4.98,3.03-10.16,5.66-15.54,7.86c-5.39,2.19-10.93,3.93-16.64,5.22c-5.74,1.25-11.21,1.89-16.46,1.89
			c-3.55,0-6.1-1.03-7.66-3.05c-1.56-2.02-1.37-5.84,0.56-11.42l45.86-129.67c1.2-3.34,2.48-5.48,3.85-6.35
			c0.65-0.38,1.57-0.68,2.72-0.89c1.2-0.21,2.65-0.33,4.38-0.33c6.56,0,12.36,0.98,17.79,2.49c1.59,0.44,3.29,0.72,4.78,1.28
			c6.58,2.54,12.1,6.28,16.57,11.2c4.49,4.92,7.71,10.87,9.68,17.87C378.97,206.49,379.49,214.41,378.56,223.17"/>
	</g>
</g>
<g id="Capa_2">
</g>
</svg>
